<svg id="Layer_1" data-name="Layer 1" xmlns="http://www.w3.org/2000/svg" viewBox="0 0 906.33 268.21"><defs><style>.cls-1{fill:#06f;}.cls-2{fill:#8d9499;}</style></defs><path class="cls-1" d="M705,4.27h0q0,65.79,0,131.59A25.14,25.14,0,0,1,679.82,161h0c-.11-4.72-.24-9.45-.32-14.17-10.1,12.13-26.69,18-42.22,15.86-13.15-1.42-25.24-8.89-33.18-19.34C595,131.68,591.26,116.59,592,102c.42-15.9,6.85-31.92,18.85-42.6a47.36,47.36,0,0,1,28.53-12.12A49.1,49.1,0,0,1,679,62.09q-.06-15.93,0-31.86A26,26,0,0,1,705,4.27ZM639.79,70.62C629,73.86,621.46,83.93,619.23,94.7c-2.73,12.92-.72,27.86,8.79,37.65,8.91,9.58,24.49,11.45,35.68,4.92,8.92-5.2,14.36-15.08,15.64-25.15,1.79-12.73-1.13-27.15-11.18-35.9C660.59,69.43,649.38,67.76,639.79,70.62Z"/><path class="cls-1" d="M343,62.49C353.1,51.3,368.63,45.72,383.6,47.28A40.56,40.56,0,0,1,414.33,65v-.16A15.35,15.35,0,0,1,429.7,49.36h10.78v85.25A26.4,26.4,0,0,1,414.09,161h0c0-5.19,0-10.37,0-15.55-10,12.1-26.08,19.15-41.76,17.41-10.61-.92-20.49-6.29-27.89-13.81-10.66-10.84-16.52-25.9-16.93-41C326.7,91.67,331.6,74.6,343,62.49Zm34.91,8.26a28.31,28.31,0,0,0-18.58,13.18c-5.1,8.33-6.24,18.55-4.91,28.08,1.24,8.93,5.58,17.79,13.14,23,6.92,4.94,16,6,24.2,4.2a28.79,28.79,0,0,0,18.2-13.61c4.86-8.13,6-18,4.8-27.29-1.22-9-5.8-17.91-13.46-23.12C394.53,70.48,385.83,69.19,377.86,70.75Z"/><path class="cls-1" d="M496.17,65C505,53.75,519.11,46.46,533.51,47.1c8,.25,16.2,2.17,22.54,7.23,6,4.73,9.82,11.79,11.77,19.1,2.09,7.67,2.35,15.67,2.27,23.57q0,19,0,38a26,26,0,0,1-26,26h0q0-33.54,0-67.09c-.11-6.78-1.21-14.28-6.29-19.23-5.38-5.11-13.45-5.27-20.36-4.32-11,1.57-20.72,11.22-20.84,22.55q-.07,21,0,42.08a26,26,0,0,1-26,26h0V74.47a25.11,25.11,0,0,1,25.1-25.11h.26C496,54.57,496.12,59.78,496.17,65Z"/><path class="cls-1" d="M225.53,63.74c15.09-18.4,44.6-21.56,63.61-7.47,12,8.49,19.63,22.26,21.89,36.65,2.48,16,.31,33.26-8.68,47-7.79,12.33-21.12,21.4-35.82,22.67-14.88,1.76-30.19-4.12-40.59-14.79q0,16.91,0,33.81a26,26,0,0,1-26,26h-.26V74.68a25.33,25.33,0,0,1,25.31-25.32h.26C225.39,54.15,225.51,58.94,225.53,63.74Zm21.38,8a27.73,27.73,0,0,0-11.36,6.43c-9.83,9.19-12.44,24-9.58,36.72,2.25,9.92,9,19.2,18.67,22.92,12.57,4.94,28.36.76,35.76-10.84,5.92-8.66,7.24-19.76,5.55-29.94-1.41-8.46-5.88-16.63-13.08-21.49C265.39,70.38,255.57,69.41,246.91,71.75Z"/><path class="cls-1" d="M763.09,49.36h.26V135a26,26,0,0,1-26,26h0q0-42.94,0-85.9A25.76,25.76,0,0,1,763.09,49.36Z"/><path class="cls-1" d="M785.05,49.39h0A41,41,0,0,1,823.4,75.81q9.61,25.35,19.25,50.69Q852.84,100.61,863,74.7a40,40,0,0,1,37.16-25.34h.28v.34q-20.6,46.9-41.33,93.74a29.42,29.42,0,0,1-27,17.55H832Q808.51,105.19,785.05,49.39Z"/><path class="cls-1" d="M89.28,4.66h79.79a76.9,76.9,0,0,1-22,54.49,77.42,77.42,0,0,1-45.91,22.78c-5.86.78-11.78.57-17.68.59H5.69A77.64,77.64,0,0,1,74.3,5.45C79.26,4.76,84.29,5.17,89.28,4.66Z"/><path class="cls-1" d="M5.69,95.32H81.52c7.28.05,14.61-.31,21.82.89a77.64,77.64,0,0,1,65.83,76.69H92.58c-6.73,0-13.49.26-20.16-.76A77.65,77.65,0,0,1,5.69,95.32Z"/><path class="cls-1" d="M57.41,190.14a77.32,77.32,0,0,1,26.06-4.43h85.71a77.64,77.64,0,0,1-68.72,77.07c-4.95.68-10,.28-14.94.78H5.77a76.52,76.52,0,0,1,12-41.75A77.83,77.83,0,0,1,57.41,190.14Z"/><path class="cls-1" d="M737.47,23.78l-.17-12.15a11.79,11.79,0,0,1,11.9,10.18,20.19,20.19,0,0,1,.13,2.69c0,3.95.11,7.9.16,11.85a11.83,11.83,0,0,1-11.87-10.29C737.5,25.31,737.55,24.54,737.47,23.78Z"/><path class="cls-1" d="M751.44,36.32q-.08-5.78-.16-11.55a23,23,0,0,1,.09-3.32,11.83,11.83,0,0,1,11.54-10.18c.06,3.89.11,7.77.16,11.66A21,21,0,0,1,763,26a11.83,11.83,0,0,1-11.56,10.32Z"/><path class="cls-2" d="M348.86,247a3.35,3.35,0,0,1-3.38-3.38v-44a3.25,3.25,0,0,1,1-2.44,3.35,3.35,0,0,1,2.4-.94h11.77a27,27,0,0,1,10.17,1.85A23.4,23.4,0,0,1,384,211.42a27.59,27.59,0,0,1,1.82,10.2A27.92,27.92,0,0,1,384,231.86a23.28,23.28,0,0,1-13.16,13.32A26.84,26.84,0,0,1,360.63,247Zm3.38-6h8.39a18.46,18.46,0,0,0,9.65-2.51,17.93,17.93,0,0,0,6.6-6.89,22.28,22.28,0,0,0,0-20.12,17.81,17.81,0,0,0-6.6-6.82,18.63,18.63,0,0,0-9.65-2.47h-8.39Z"/><path class="cls-2" d="M399.69,205.7a4.34,4.34,0,1,1,3-1.27A4.13,4.13,0,0,1,399.69,205.7Zm0,41.34a3.23,3.23,0,0,1-3.31-3.32V214.79a3.19,3.19,0,0,1,.94-2.4,3.3,3.3,0,0,1,5.69,2.4v28.93a3.31,3.31,0,0,1-.91,2.37A3.2,3.2,0,0,1,399.69,247Z"/><path class="cls-2" d="M430.17,247.29a16,16,0,0,1-8.61-2.3,16.22,16.22,0,0,1-5.88-6.37,19.7,19.7,0,0,1-2.15-9.33,18.67,18.67,0,0,1,2.31-9.39,16.72,16.72,0,0,1,6.34-6.37,19.71,19.71,0,0,1,18.52,0A16.72,16.72,0,0,1,447,219.9a18.67,18.67,0,0,1,2.31,9.39h-3.84a21,21,0,0,1-2,9.33A15.79,15.79,0,0,1,438.1,245,13.88,13.88,0,0,1,430.17,247.29Zm1.17,14.5A20.82,20.82,0,0,1,422.7,260a18.19,18.19,0,0,1-6.83-5.33,2.74,2.74,0,0,1-.61-2.27,2.91,2.91,0,0,1,1.26-1.89A3.15,3.15,0,0,1,419,250a3.3,3.3,0,0,1,2.05,1.3,12.07,12.07,0,0,0,4.42,3.45,14.28,14.28,0,0,0,6.05,1.23,11.54,11.54,0,0,0,5.75-1.49,10.79,10.79,0,0,0,4.19-4.42,15.05,15.05,0,0,0,1.56-7.15v-9.23l2.14-5.72,4.23,1.36v14a19.24,19.24,0,0,1-2.28,9.33,17.39,17.39,0,0,1-6.33,6.66A17.7,17.7,0,0,1,431.34,261.79Zm.14-20.34a11.36,11.36,0,0,0,6-1.56,10.92,10.92,0,0,0,4.07-4.29,13.24,13.24,0,0,0,1.46-6.31,13.41,13.41,0,0,0-1.46-6.34,10.86,10.86,0,0,0-4.07-4.32,12.24,12.24,0,0,0-12,0A11.12,11.12,0,0,0,421.4,223a13.08,13.08,0,0,0-1.5,6.34,12.91,12.91,0,0,0,1.5,6.31,11.18,11.18,0,0,0,4.09,4.29A11.43,11.43,0,0,0,431.48,241.45Z"/><path class="cls-2" d="M463.19,205.7a4.32,4.32,0,1,1,3-1.27A4.15,4.15,0,0,1,463.19,205.7Zm0,41.34a3.23,3.23,0,0,1-3.31-3.32V214.79a3.19,3.19,0,0,1,.94-2.4,3.3,3.3,0,0,1,5.69,2.4v28.93a3.31,3.31,0,0,1-.91,2.37A3.2,3.2,0,0,1,463.19,247Z"/><path class="cls-2" d="M477.36,218.37a3.14,3.14,0,0,1-2.21-.78,2.55,2.55,0,0,1-.84-2,2.7,2.7,0,0,1,.84-2.08,3.14,3.14,0,0,1,2.21-.78h15a3.14,3.14,0,0,1,2.21.78,2.7,2.7,0,0,1,.84,2.08,2.55,2.55,0,0,1-.84,2,3.14,3.14,0,0,1-2.21.78ZM491.79,247a10.73,10.73,0,0,1-5.85-1.66,11.61,11.61,0,0,1-4.09-4.52,13.64,13.64,0,0,1-1.5-6.43v-31a3.2,3.2,0,0,1,.91-2.34,3.25,3.25,0,0,1,5.59,2.34v31a6.68,6.68,0,0,0,1.43,4.35,4.39,4.39,0,0,0,3.51,1.76H494a2.58,2.58,0,0,1,2,.91,3.36,3.36,0,0,1,.81,2.34,2.92,2.92,0,0,1-1.07,2.33A4.13,4.13,0,0,1,493,247Z"/><path class="cls-2" d="M519.74,247.29a15.56,15.56,0,0,1-8.51-2.37,16.76,16.76,0,0,1-6-6.43,19.2,19.2,0,0,1-2.18-9.2,18.1,18.1,0,0,1,2.37-9.23,17.94,17.94,0,0,1,31.07,0,18,18,0,0,1,2.38,9.23h-2.54a19.09,19.09,0,0,1-2.18,9.2,16.82,16.82,0,0,1-5.94,6.43A15.62,15.62,0,0,1,519.74,247.29Zm1.3-5.84a11.06,11.06,0,0,0,5.92-1.6,11.35,11.35,0,0,0,4.09-4.35,13.73,13.73,0,0,0,0-12.48,11.44,11.44,0,0,0-4.09-4.36,11.74,11.74,0,0,0-11.8,0A11.55,11.55,0,0,0,511,223a13.49,13.49,0,0,0,0,12.48,11.45,11.45,0,0,0,4.16,4.35A11,11,0,0,0,521,241.45Zm14.56,5.65a3.21,3.21,0,0,1-3.31-3.31v-9.95l1.23-6.89,5.4,2.34v14.5a3.23,3.23,0,0,1-3.32,3.31Z"/><path class="cls-2" d="M557.25,247a8.56,8.56,0,0,1-5.07-1.56,10.29,10.29,0,0,1-3.45-4.26A14.83,14.83,0,0,1,547.5,235V199.52a3.31,3.31,0,0,1,5.59-2.34,3.2,3.2,0,0,1,.91,2.34V235a7.78,7.78,0,0,0,.91,4,2.66,2.66,0,0,0,2.34,1.56h1.62a2.68,2.68,0,0,1,2.11.91,3.37,3.37,0,0,1,.82,2.34,2.78,2.78,0,0,1-1.24,2.33,5.19,5.19,0,0,1-3.18.92Z"/><path class="cls-2" d="M604.11,247.69a24.33,24.33,0,0,1-7.93-1.3,20.58,20.58,0,0,1-6.56-3.64,14.3,14.3,0,0,1-4.1-5.4,2.58,2.58,0,0,1,0-2.53,3.57,3.57,0,0,1,4.62-1.14,4,4,0,0,1,1.72,1.85,8.46,8.46,0,0,0,2.57,3,14.63,14.63,0,0,0,4.32,2.21,16.86,16.86,0,0,0,5.33.85,16.41,16.41,0,0,0,5.75-1,10.2,10.2,0,0,0,4.26-2.83,6.7,6.7,0,0,0,1.63-4.58,8.55,8.55,0,0,0-2.7-6.17q-2.7-2.73-8.87-3.38-8.07-.78-12.68-4.75a12.41,12.41,0,0,1-4.61-9.81,11.3,11.3,0,0,1,2.4-7.29,14.93,14.93,0,0,1,6.53-4.54,25.85,25.85,0,0,1,9.2-1.56,19.67,19.67,0,0,1,6.92,1.1,16.28,16.28,0,0,1,5.17,3.06,20.13,20.13,0,0,1,3.84,4.61,4.07,4.07,0,0,1,.74,2.7,2.7,2.7,0,0,1-1.26,2,3.07,3.07,0,0,1-2.67.33,3.68,3.68,0,0,1-2.14-1.69,11.69,11.69,0,0,0-2.54-3.19,11.31,11.31,0,0,0-3.51-2.05,13.59,13.59,0,0,0-4.74-.75,15.69,15.69,0,0,0-8.06,1.79,6.11,6.11,0,0,0-3.25,5.69,7.52,7.52,0,0,0,1,3.74,8.12,8.12,0,0,0,3.71,3.09,24.5,24.5,0,0,0,7.77,1.82q7.72.78,12,4.71A13.36,13.36,0,0,1,622.38,233a12.93,12.93,0,0,1-1.53,6.43,14,14,0,0,1-4.1,4.58,18.16,18.16,0,0,1-5.85,2.77A25.57,25.57,0,0,1,604.11,247.69Z"/><path class="cls-2" d="M648.18,247.29a18.38,18.38,0,0,1-9.3-2.3,16.69,16.69,0,0,1-6.33-6.37,20.12,20.12,0,0,1,0-18.72,16.69,16.69,0,0,1,6.33-6.37,19.73,19.73,0,0,1,18.53,0,16.72,16.72,0,0,1,6.34,6.37,20.23,20.23,0,0,1,0,18.72,16.55,16.55,0,0,1-6.3,6.37A18.38,18.38,0,0,1,648.18,247.29Zm0-5.84a11.4,11.4,0,0,0,6-1.56,10.89,10.89,0,0,0,4.06-4.29,13.12,13.12,0,0,0,1.47-6.31,13.3,13.3,0,0,0-1.47-6.34,10.84,10.84,0,0,0-4.06-4.32,12.24,12.24,0,0,0-12,0,11.15,11.15,0,0,0-4.1,4.32,13.19,13.19,0,0,0-1.49,6.34,13,13,0,0,0,1.49,6.31,11.2,11.2,0,0,0,4.1,4.29A11.4,11.4,0,0,0,648.18,241.45Z"/><path class="cls-2" d="M684.38,247a8.6,8.6,0,0,1-5.07-1.56,10.34,10.34,0,0,1-3.44-4.26,14.83,14.83,0,0,1-1.24-6.21V199.52a3.2,3.2,0,0,1,.91-2.34,3.25,3.25,0,0,1,5.59,2.34V235a7.88,7.88,0,0,0,.91,4,2.69,2.69,0,0,0,2.34,1.56H686a2.68,2.68,0,0,1,2.11.91,3.36,3.36,0,0,1,.81,2.34,2.77,2.77,0,0,1-1.23,2.33,5.22,5.22,0,0,1-3.19.92Z"/><path class="cls-2" d="M710.38,247.36a16.54,16.54,0,0,1-8-1.92,13.7,13.7,0,0,1-5.59-5.62,18.52,18.52,0,0,1-2-9.1v-16a3.36,3.36,0,0,1,5.69-2.37,3.25,3.25,0,0,1,.94,2.37v16a11.91,11.91,0,0,0,1.36,6,8.42,8.42,0,0,0,3.71,3.51,11.84,11.84,0,0,0,5.26,1.14,11,11,0,0,0,5-1.1,9.21,9.21,0,0,0,3.47-3,7.27,7.27,0,0,0,1.3-4.23h4.1a13.72,13.72,0,0,1-2,7.28,14.34,14.34,0,0,1-5.4,5.14A15.84,15.84,0,0,1,710.38,247.36Zm14.37-.32a3.25,3.25,0,0,1-3.32-3.32v-29a3.16,3.16,0,0,1,1-2.4,3.3,3.3,0,0,1,5.68,2.4v29a3.27,3.27,0,0,1-.91,2.37A3.18,3.18,0,0,1,724.75,247Z"/><path class="cls-2" d="M738.27,218.37a3.12,3.12,0,0,1-2.21-.78,2.53,2.53,0,0,1-.85-2,2.67,2.67,0,0,1,.85-2.08,3.12,3.12,0,0,1,2.21-.78h15a3.12,3.12,0,0,1,2.21.78,2.67,2.67,0,0,1,.85,2.08,2.53,2.53,0,0,1-.85,2,3.12,3.12,0,0,1-2.21.78ZM752.7,247a10.68,10.68,0,0,1-5.85-1.66,11.64,11.64,0,0,1-4.1-4.52,13.76,13.76,0,0,1-1.49-6.43v-31a3.31,3.31,0,0,1,5.59-2.34,3.2,3.2,0,0,1,.91,2.34v31a6.63,6.63,0,0,0,1.43,4.35,4.36,4.36,0,0,0,3.51,1.76h2.21a2.54,2.54,0,0,1,2,.91,3.36,3.36,0,0,1,.81,2.34,2.89,2.89,0,0,1-1.07,2.33,4.12,4.12,0,0,1-2.76.92Z"/><path class="cls-2" d="M769.79,205.7a4.34,4.34,0,1,1,3-1.27A4.13,4.13,0,0,1,769.79,205.7Zm0,41.34a3.23,3.23,0,0,1-3.31-3.32V214.79a3.19,3.19,0,0,1,.94-2.4,3.3,3.3,0,0,1,5.69,2.4v28.93a3.31,3.31,0,0,1-.91,2.37A3.2,3.2,0,0,1,769.79,247Z"/><path class="cls-2" d="M801.58,247.29a18.38,18.38,0,0,1-9.3-2.3,16.72,16.72,0,0,1-6.34-6.37,20.2,20.2,0,0,1,0-18.72,16.72,16.72,0,0,1,6.34-6.37,19.73,19.73,0,0,1,18.53,0,16.76,16.76,0,0,1,6.33,6.37,20.27,20.27,0,0,1,0,18.72,16.51,16.51,0,0,1-6.31,6.37A18.34,18.34,0,0,1,801.58,247.29Zm0-5.84a11.42,11.42,0,0,0,6-1.56,11,11,0,0,0,4.06-4.29,13.24,13.24,0,0,0,1.46-6.31,13.41,13.41,0,0,0-1.46-6.34,10.91,10.91,0,0,0-4.06-4.32,12.24,12.24,0,0,0-12,0,11.08,11.08,0,0,0-4.1,4.32,13.08,13.08,0,0,0-1.49,6.34,12.91,12.91,0,0,0,1.49,6.31,11.13,11.13,0,0,0,4.1,4.29A11.37,11.37,0,0,0,801.58,241.45Z"/><path class="cls-2" d="M832.64,247.1a3.21,3.21,0,0,1-3.31-3.31v-29a3.19,3.19,0,0,1,.94-2.4,3.3,3.3,0,0,1,5.69,2.4v29a3.27,3.27,0,0,1-.91,2.37A3.19,3.19,0,0,1,832.64,247.1Zm26.72,0a3.21,3.21,0,0,1-3.31-3.31v-16a11.9,11.9,0,0,0-1.37-6,8.6,8.6,0,0,0-3.67-3.48,12,12,0,0,0-5.3-1.13,10.84,10.84,0,0,0-4.94,1.1,9.28,9.28,0,0,0-3.51,3,7.19,7.19,0,0,0-1.3,4.26h-4.1a13.62,13.62,0,0,1,2-7.32,14.38,14.38,0,0,1,5.42-5.1,15.83,15.83,0,0,1,7.74-1.88,16.57,16.57,0,0,1,8,1.91,13.9,13.9,0,0,1,5.59,5.63,18.62,18.62,0,0,1,2,9.09v16a3.23,3.23,0,0,1-3.32,3.31Z"/><path class="cls-2" d="M886.59,247.29a24.57,24.57,0,0,1-8.41-1.39,16.13,16.13,0,0,1-6-3.54,2.84,2.84,0,0,1-.81-2.38,3.12,3.12,0,0,1,1.27-2.17,3.36,3.36,0,0,1,2.57-.88,3.51,3.51,0,0,1,2.17,1.14,10.31,10.31,0,0,0,3.55,2.3,13.21,13.21,0,0,0,5.42,1.08,11,11,0,0,0,5.76-1.24,3.8,3.8,0,0,0,2-3.18,3.94,3.94,0,0,0-1.85-3.38q-1.92-1.44-7-2.34-6.56-1.31-9.52-3.9a8.19,8.19,0,0,1-3-6.37,8,8,0,0,1,2-5.5,11.89,11.89,0,0,1,5-3.25,19.23,19.23,0,0,1,6.37-1.07,19.81,19.81,0,0,1,7.6,1.37,12.92,12.92,0,0,1,5.27,3.77,2.94,2.94,0,0,1,.84,2.17,2.51,2.51,0,0,1-1.1,1.92,3.19,3.19,0,0,1-2.47.46,4.79,4.79,0,0,1-2.41-1.17,8.82,8.82,0,0,0-3.51-2.15A14.64,14.64,0,0,0,886,217a10.87,10.87,0,0,0-4.84,1,3.07,3.07,0,0,0-2,2.86,3.76,3.76,0,0,0,.62,2.11,5.15,5.15,0,0,0,2.44,1.69,31.25,31.25,0,0,0,5.33,1.47,28.78,28.78,0,0,1,7.7,2.47,10.16,10.16,0,0,1,4.06,3.47,8.46,8.46,0,0,1,1.24,4.59A9.55,9.55,0,0,1,899,242a11.13,11.13,0,0,1-4.68,3.84A18.4,18.4,0,0,1,886.59,247.29Z"/></svg>