<?xml version="1.0" encoding="utf-8"?>
<!-- Generator: Adobe Illustrator 26.2.1, SVG Export Plug-In . SVG Version: 6.00 Build 0)  -->
<svg version="1.1" id="Layer_1" xmlns="http://www.w3.org/2000/svg" xmlns:xlink="http://www.w3.org/1999/xlink" x="0px" y="0px"
	 viewBox="0 0 906.33 268.21" style="enable-background:new 0 0 906.33 268.21;" xml:space="preserve">
<style type="text/css">
	.st0{fill:#FFFFFF;}
	.st1{display:none;}
	.st2{display:inline;fill:#ADB5BD;}
	.st3{display:inline;}
	.st4{fill:#ADB5BD;}
</style>
<g>
	<g>
		<path class="st0" d="M704.96,4.27L704.96,4.27c-0.01,43.86-0.01,87.73,0,131.59c0,13.88-11.25,25.14-25.14,25.14h0
			c-0.11-4.72-0.24-9.45-0.32-14.17c-10.1,12.13-26.69,17.99-42.22,15.86c-13.15-1.42-25.24-8.89-33.18-19.34
			c-9.07-11.67-12.84-26.76-12.12-41.37c0.42-15.9,6.85-31.92,18.85-42.6c7.81-7.08,18-11.44,28.53-12.12
			c14.56-1.36,29.6,4.21,39.66,14.83c-0.03-10.62-0.03-21.24-0.03-31.86C678.99,15.89,690.62,4.27,704.96,4.27z M639.79,70.62
			c-10.78,3.24-18.33,13.31-20.56,24.08c-2.73,12.92-0.72,27.86,8.79,37.65c8.91,9.58,24.49,11.45,35.68,4.92
			c8.92-5.2,14.36-15.08,15.64-25.15c1.79-12.73-1.13-27.15-11.18-35.9C660.59,69.43,649.38,67.76,639.79,70.62z"/>
	</g>
	<g>
		<path class="st0" d="M342.95,62.49c10.15-11.19,25.68-16.77,40.65-15.21c12.29,0.77,23.87,7.51,30.73,17.72c0-0.05,0-0.1,0-0.16
			c-0.09-8.53,6.85-15.48,15.38-15.48c3.59,0,7.18,0,10.77,0v85.25c0,14.57-11.82,26.39-26.39,26.39h0
			c0.01-5.19-0.03-10.37,0.03-15.55c-9.96,12.1-26.08,19.15-41.76,17.41c-10.61-0.92-20.49-6.29-27.89-13.81
			c-10.66-10.84-16.52-25.9-16.93-41.01C326.7,91.67,331.6,74.6,342.95,62.49z M377.86,70.75c-7.7,1.49-14.56,6.48-18.58,13.18
			c-5.1,8.33-6.24,18.55-4.91,28.08c1.24,8.93,5.58,17.79,13.14,23c6.92,4.94,16.03,6,24.2,4.2c7.63-1.73,14.29-6.88,18.2-13.61
			c4.86-8.13,6.01-18.02,4.8-27.29c-1.22-9.05-5.8-17.91-13.46-23.12C394.53,70.48,385.83,69.19,377.86,70.75z"/>
	</g>
	<path class="st0" d="M496.17,64.99c8.79-11.24,22.94-18.53,37.34-17.89c7.95,0.25,16.2,2.17,22.54,7.23
		c6.03,4.73,9.82,11.79,11.77,19.1c2.09,7.67,2.35,15.67,2.27,23.57c-0.01,12.66-0.01,25.33-0.01,38c0,14.36-11.63,26-25.99,26l0,0
		c-0.01-22.36,0.02-44.73-0.02-67.09c-0.11-6.78-1.21-14.28-6.29-19.23c-5.38-5.11-13.45-5.27-20.36-4.32
		c-10.96,1.57-20.72,11.22-20.84,22.55c-0.04,14.03-0.04,28.05-0.03,42.08c0.01,14.36-11.64,26.01-26,26.01h0V74.47
		c0-13.87,11.24-25.11,25.11-25.11l0.25,0C495.99,54.57,496.12,59.78,496.17,64.99z"/>
	<g>
		<path class="st0" d="M225.53,63.74c15.09-18.4,44.6-21.56,63.61-7.47c11.98,8.49,19.63,22.26,21.89,36.65
			c2.48,16.01,0.31,33.26-8.68,47.02c-7.79,12.33-21.12,21.4-35.82,22.67c-14.88,1.76-30.19-4.12-40.59-14.79
			c0.03,11.27,0.03,22.54,0.02,33.81c-0.01,14.33-11.62,25.96-25.95,25.97l-0.26,0V74.68c0-13.98,11.33-25.31,25.31-25.32l0.26,0
			C225.39,54.15,225.51,58.94,225.53,63.74z M246.91,71.75c-4.23,1.19-8.15,3.43-11.36,6.43c-9.83,9.19-12.44,23.97-9.58,36.72
			c2.25,9.92,8.99,19.2,18.67,22.92c12.57,4.94,28.36,0.76,35.76-10.84c5.92-8.66,7.24-19.76,5.55-29.94
			c-1.41-8.46-5.88-16.63-13.08-21.49C265.39,70.38,255.57,69.41,246.91,71.75z"/>
	</g>
	<path class="st0" d="M763.09,49.36l0.26,0v85.65c0,14.35-11.64,25.99-25.99,25.99l0,0c0-28.63-0.01-57.26,0-85.9
		C737.35,60.89,748.88,49.38,763.09,49.36z"/>
	<path class="st0" d="M785.05,49.39L785.05,49.39c17.03-0.02,32.3,10.5,38.35,26.42c6.41,16.9,12.82,33.79,19.25,50.69
		c6.79-17.26,13.57-34.53,20.35-51.8c6-15.28,20.75-25.33,37.17-25.34c0.09,0,0.18,0,0.28,0v0.34
		c-13.73,31.27-27.54,62.5-41.32,93.74c-4.71,10.68-15.29,17.57-26.97,17.55l-0.19,0C816.32,123.79,800.68,86.6,785.05,49.39z"/>
</g>
<g class="st1">
	<path class="st2" d="M371.72,196.25c3.87-1.11,7.95,2.91,6.78,6.8c-0.92,4.12-6.79,5.7-9.54,2.42
		C366.03,202.61,367.7,197.05,371.72,196.25z"/>
	<path class="st2" d="M427.76,196.22c4.19-1.16,8.4,3.65,6.45,7.62c-1.41,3.62-6.76,4.64-9.28,1.61
		C422.02,202.55,423.74,197,427.76,196.22z"/>
	<path class="st2" d="M508.49,195.92c2.92,0,5.85,0,8.77,0c0.01,17.7,0,35.39,0.01,53.08c-2.93,0-5.86,0-8.78,0
		C508.49,231.31,508.49,213.61,508.49,195.92z"/>
	<path class="st2" d="M619.92,195.91c2.92,0.01,5.84,0.01,8.77,0.02c0,17.69,0,35.38,0,53.07c-2.93,0-5.86,0-8.78,0
		C619.92,231.3,619.9,213.61,619.92,195.91z"/>
	<path class="st2" d="M709.76,196.36c3.92-1.46,8.37,2.61,7.17,6.66c-0.88,3.99-6.45,5.7-9.3,2.7
		C704.53,203.05,705.83,197.43,709.76,196.36z"/>
	<g class="st3">
		<path class="st4" d="M315.44,197.36c6.99,0.05,13.99-0.09,20.98,0.05c8.28,0.14,16.67,4.34,20.9,11.62
			c6.36,10.79,4.66,26.44-5.37,34.47c-4.36,3.49-9.92,5.28-15.46,5.43c-7.02,0.18-14.04,0.01-21.05,0.07
			C315.44,231.78,315.43,214.57,315.44,197.36z M325.07,205.01c0,12.11,0,24.22,0,36.32c6.39-0.28,13.53,1.22,19.19-2.55
			c5.47-3.6,7.33-10.64,6.98-16.86c-0.14-5.77-2.57-11.98-7.84-14.88C337.82,203.91,331.16,205.29,325.07,205.01z"/>
	</g>
	<path class="st2" d="M545.48,200.05c7.72-5.39,18.81-3.82,25.84,2.05c-1.44,2.02-1.84,5.66-4.68,6.04
		c-4.33-2.1-9.1-4.94-14.04-2.95c-4.08,1.08-5.71,7.17-2.22,9.82c5.92,4.17,14.44,3.84,19.24,9.79c5.43,7.4,1.84,19.28-6.49,22.91
		c-8.53,3.89-19,1.42-25.74-4.84c1.26-1.99,2.22-4.31,4.11-5.8c2.42-0.26,4.18,1.84,6.24,2.78c3.76,2.22,8.93,2.7,12.71,0.28
		c3.52-2.45,3.87-8.8-0.17-10.96c-5.47-3.12-12.54-3.12-17.19-7.75C537.37,215.49,538.72,204.65,545.48,200.05z"/>
	<path class="st2" d="M448.14,201.72c1.79-0.96,4.04-0.4,6.02-0.61c0.01,3.84,0,7.69,0.01,11.54c3.19,0,6.39,0,9.59,0.01
		c-0.01,2.09-0.01,4.19,0,6.29c-3.2,0-6.4,0-9.59,0.01c0.01,6.03-0.02,12.06-0.02,18.09c0.1,1.73-0.18,3.92,1.49,5.05
		c1.97,0.98,3.97-0.43,5.89-0.9c1.14,1.76,2.25,3.54,3.38,5.32c-4.17,2.65-9.5,4.08-14.26,2.21c-3.4-1.35-5.22-5.08-5.19-8.59
		c-0.17-7.02,0-14.03-0.05-21.05c-1.63-0.13-3.24-0.16-4.83-0.4c-0.92-1.51-0.51-3.39-0.75-5.06c2-0.33,4-0.67,6-0.99
		C446.6,209,446.83,205.22,448.14,201.72z"/>
	<path class="st2" d="M683.96,201.55c1.9-0.58,3.92-0.34,5.9-0.45c0,3.85,0,7.7,0.01,11.55c3.19,0,6.38,0,9.58,0.01
		c-0.01,2.09,0,4.19,0,6.29c-3.2,0-6.39,0-9.58,0.01c0.01,6.03-0.02,12.05-0.02,18.09c0.05,1.8-0.14,4.05,1.63,5.17
		c1.99,0.67,3.9-0.52,5.79-1.01c1.12,1.77,2.23,3.55,3.33,5.34c-4.12,2.56-9.3,4.01-14.01,2.28c-3.6-1.29-5.5-5.19-5.44-8.85
		c-0.15-6.96,0.01-13.94-0.05-20.9c-1.68-0.24-3.58,0.17-5.07-0.69c-0.48-1.54-0.37-3.18-0.47-4.76c1.98-0.34,3.96-0.66,5.96-0.99
		C682.34,208.95,682.46,205.04,683.96,201.55z"/>
	<g class="st3">
		<path class="st4" d="M387.96,216.47c4.3-4.88,11.74-5.71,17.68-3.79c4.18,1.52,8.68,0.8,13.03,0.92c-0.07,1.42-0.2,2.85-0.37,4.27
			c-1.15,1.24-3.16,1.05-4.66,1.61c0.68,3.73,0.77,7.95-1.84,11c-3.9,4.89-10.77,5.52-16.54,4.63c-0.67,1.27-1.99,3.57,0.29,4.08
			c6.21,1.83,13.45-0.36,19.1,3.52c4.34,3.2,3.49,10,0.06,13.57c-5.61,5.99-14.81,6.55-22.34,4.69c-4.19-1-8.76-4.13-8.65-8.9
			c-0.17-3.38,2.8-5.46,5.42-6.9c-1.16-1.54-2.72-3.08-2.51-5.17c-0.11-2.95,2.36-4.88,4.39-6.56
			C385.22,230.08,383.48,221.58,387.96,216.47z M396.73,218.41c-4.9,1.81-4.2,10.26,1.01,11.15c4.19,1.43,9.48-1.72,8.57-6.5
			C406.17,218.33,400.43,216.93,396.73,218.41z M391.32,251.02c-0.09,2.74,2.83,3.97,5.11,4.29c3.87,0.49,8.28,0.62,11.63-1.7
			c2.01-1.43,2-5.13-0.69-5.81c-4.22-1.37-8.77-0.6-13.11-1.22C393.07,247.88,391.21,249.02,391.32,251.02z"/>
	</g>
	<g class="st3">
		<path class="st4" d="M470.49,217.49c6.56-5.68,17.69-8.51,24.77-2.26c2.89,2.7,4.02,6.77,4.03,10.63
			c0.06,7.74-0.01,15.47,0.01,23.21c-2.08-0.19-4.33,0.21-6.26-0.69c-0.62-1.19-1.08-2.45-1.57-3.68
			c-4.6,4.25-11.51,6.37-17.44,3.76c-5.89-2.59-6.9-11.73-1.77-15.58c5.24-4.1,12.2-4.64,18.6-4.84c-0.32-2.76,0.13-6.18-2.24-8.16
			c-2.69-1.91-6.42-1.39-9.17,0.1c-1.85,0.72-3.61,2.37-5.71,1.8C472.26,220.7,471.53,218.92,470.49,217.49z M479.23,235.76
			c-2.66,1.45-2.59,6.07,0.31,7.2c4.01,1.58,8.19-0.51,11.21-3.13c-0.02-2.15-0.03-4.3-0.02-6.44
			C486.84,233.72,482.65,233.64,479.23,235.76z"/>
	</g>
	<g class="st3">
		<path class="st4" d="M588.81,212.61c7.71-2.21,17.37,0.24,21.28,7.73c3.99,7.86,3.29,18.75-3.38,24.97
			c-7.55,6.51-20.95,5.66-26.82-2.72c-3.75-5.42-4.22-12.6-2.45-18.81C578.97,218.41,583.39,214.02,588.81,212.61z M590.7,219.32
			c-6.17,3.26-5.8,11.91-4.31,17.75c1.51,6.42,11.1,7.79,14.85,2.7c2.14-3.16,2.32-7.18,2.14-10.86c-0.21-3.06-0.93-6.42-3.33-8.53
			C597.48,218.28,593.69,218.16,590.7,219.32z"/>
	</g>
	<path class="st2" d="M637.85,212.38c2.92-0.01,5.84-0.01,8.77,0c0.06,7.92-0.11,15.84,0.06,23.76c-0.07,2.67,1.25,5.73,4.12,6.32
		c3.76,1.03,7.26-1.12,10.06-3.41c-0.08-8.89-0.02-17.78-0.04-26.67c2.91,0,5.83-0.01,8.76,0c0.04,12.22,0.01,24.44,0.02,36.66
		c-2.06-0.03-4.11,0.07-6.13-0.21c-1.75-0.48-1.54-2.75-2.18-4.08c-4.78,4.9-13.18,6.74-18.84,2.32c-3.28-2.62-4.52-6.96-4.58-11
		C637.79,228.17,637.87,220.27,637.85,212.38z"/>
	<path class="st2" d="M707.01,212.38c2.92,0,5.85,0,8.78,0c0,12.21,0,24.41,0,36.62c-2.93,0-5.86,0-8.78,0
		C707.01,236.79,707.01,224.59,707.01,212.38z"/>
	<g class="st3">
		<path class="st4" d="M735.79,212.54c6.58-1.68,14.44-0.37,19.04,4.96c5.38,6.5,5.69,16.38,1.86,23.71
			c-5.41,9.98-20.91,11.1-28.58,3.22c-5.12-5.45-5.95-13.79-3.92-20.73C725.75,218.26,730.3,213.88,735.79,212.54z M737.69,219.2
			c-6.37,2.97-6.04,11.65-4.71,17.47c1.17,5.97,9.06,7.94,13.61,4.53c2.68-2.18,3.37-5.87,3.54-9.15c0.1-3.56-0.13-7.43-2.23-10.45
			C745.64,218.44,741.11,218.01,737.69,219.2z"/>
	</g>
	<path class="st2" d="M766.07,212.35c2.21,0.04,4.47-0.16,6.66,0.32c1.04,1.03,1.05,2.67,1.64,3.98c4.04-4.04,10.16-6.09,15.69-4.12
		c4.81,1.56,7.48,6.66,7.66,11.48c0.26,8.32,0.01,16.66,0.1,24.99c-2.93,0-5.86,0-8.78,0c-0.06-8.01,0.12-16.02-0.06-24.02
		c0.12-3.15-2.16-6.4-5.53-6.29c-3.94-0.13-9.5,2.61-8.65,7.27c0.05,7.68,0.03,15.36,0.04,23.04c-2.93,0-5.86,0-8.77,0
		C766.07,236.78,766.07,224.57,766.07,212.35z"/>
	<path class="st2" d="M808.83,214.35c6.51-4.24,15.51-2.96,21.39,1.86c-1.26,1.39-1.82,3.96-3.81,4.33
		c-3.62-1.09-7.42-3.36-11.26-1.76c-2.4,0.69-3.59,4.26-1.34,5.83c4.53,3.14,10.97,2.88,14.75,7.26c3.81,4.84,1.56,12.7-3.7,15.55
		c-6.86,3.76-15.62,2.34-21.76-2.19c1.31-1.6,1.98-4.49,4.32-4.77c3.78,1.42,7.69,4.17,11.89,2.45c2.68-0.68,4.12-4.69,1.69-6.47
		c-4.19-2.87-9.83-2.85-13.72-6.27C802.6,226.02,803.65,217.64,808.83,214.35z"/>
	<path class="st2" d="M368.59,212.38c2.92-0.01,5.85-0.01,8.78,0c0,12.2,0,24.41,0,36.62c-2.93,0-5.86,0-8.78,0
		C368.59,236.79,368.59,224.58,368.59,212.38z"/>
	<path class="st2" d="M424.59,212.38c2.92-0.01,5.84-0.01,8.77,0c0.01,12.2,0,24.41,0.01,36.62c-2.94,0-5.86,0-8.79,0
		C424.59,236.79,424.58,224.58,424.59,212.38z"/>
</g>
<g>
	<path class="st0" d="M89.28,4.66h79.8c0.36,20.14-7.93,40.15-22.01,54.49c-12.14,12.5-28.61,20.71-45.91,22.78
		c-5.86,0.78-11.78,0.57-17.67,0.59c-25.93,0-51.86,0.01-77.79,0c0-17.25,5.9-34.44,16.63-47.96C34.88,18.48,54,7.7,74.3,5.45
		C79.26,4.76,84.29,5.17,89.28,4.66z"/>
	<path class="st0" d="M5.69,95.32c25.28-0.01,50.56,0,75.83-0.01c7.28,0.05,14.6-0.31,21.82,0.89c19.86,2.94,38.31,14.06,50.3,30.15
		c10.06,13.28,15.55,29.89,15.53,46.54c-25.53,0.01-51.06,0.01-76.59,0.01c-6.73-0.05-13.49,0.26-20.17-0.76
		c-18.84-2.57-36.51-12.46-48.65-27.08C12.14,131.29,5.67,113.34,5.69,95.32z"/>
	<path class="st0" d="M57.41,190.14c8.34-2.97,17.21-4.44,26.06-4.43c28.57,0.01,57.14,0,85.71,0.01
		c0.01,17.75-6.24,35.42-17.55,49.11c-12.58,15.48-31.32,25.79-51.16,27.96c-4.96,0.68-9.99,0.27-14.95,0.78H5.77
		c-0.21-14.69,4.1-29.36,11.96-41.75C26.93,207.22,41.13,195.86,57.41,190.14z"/>
</g>
<g>
	<path class="st0" d="M737.47,23.78l-0.16-12.15c3.07-0.1,6.13,1.12,8.34,3.24c1.93,1.82,3.21,4.31,3.56,6.94
		c0.13,0.89,0.11,1.79,0.13,2.69c0.05,3.95,0.11,7.89,0.16,11.84c-2.63,0.04-5.25-0.83-7.34-2.43c-2.47-1.88-4.15-4.77-4.54-7.85
		C737.5,25.31,737.55,24.54,737.47,23.78z"/>
	<path class="st0" d="M751.44,36.32c-0.05-3.85-0.1-7.7-0.16-11.54c-0.01-1.11-0.08-2.22,0.09-3.32c0.41-3.03,2.06-5.86,4.49-7.72
		c2-1.56,4.52-2.43,7.05-2.46c0.05,3.89,0.11,7.77,0.16,11.66c0.01,1.02,0.07,2.05-0.07,3.07c-0.35,2.87-1.82,5.58-4.02,7.46
		C756.9,35.26,754.18,36.28,751.44,36.32z"/>
</g>
<g>
	<g>
		<path class="st0" d="M348.86,247.04c-0.95,0-1.75-0.32-2.4-0.97c-0.65-0.65-0.98-1.45-0.98-2.4v-44.01c0-1,0.33-1.81,0.98-2.44
			c0.65-0.63,1.45-0.94,2.4-0.94h11.77c3.73,0,7.12,0.62,10.17,1.85c3.06,1.23,5.71,2.99,7.96,5.27c2.25,2.27,3.99,4.95,5.2,8.03
			c1.21,3.08,1.82,6.48,1.82,10.21s-0.61,7.14-1.82,10.24c-1.21,3.1-2.95,5.79-5.2,8.06c-2.25,2.28-4.91,4.03-7.96,5.27
			c-3.05,1.23-6.45,1.85-10.17,1.85H348.86z M352.24,241.06h8.39c3.64,0,6.86-0.83,9.65-2.5c2.79-1.67,4.99-3.96,6.6-6.89
			c1.6-2.92,2.4-6.27,2.4-10.04c0-3.81-0.8-7.17-2.4-10.08c-1.6-2.9-3.8-5.18-6.6-6.82c-2.79-1.65-6.01-2.47-9.65-2.47h-8.39V241.06
			z"/>
		<path class="st0" d="M399.69,205.7c-1.17,0-2.18-0.42-3.02-1.27c-0.85-0.84-1.27-1.85-1.27-3.02s0.42-2.18,1.27-3.02
			c0.84-0.84,1.85-1.27,3.02-1.27s2.18,0.42,3.02,1.27c0.84,0.85,1.27,1.85,1.27,3.02s-0.42,2.18-1.27,3.02
			C401.87,205.27,400.86,205.7,399.69,205.7z M399.69,247.04c-0.95,0-1.75-0.31-2.37-0.94c-0.63-0.63-0.94-1.42-0.94-2.37v-28.93
			c0-1,0.31-1.8,0.94-2.4c0.63-0.61,1.42-0.91,2.37-0.91c1,0,1.8,0.3,2.41,0.91c0.61,0.61,0.91,1.41,0.91,2.4v28.93
			c0,0.95-0.3,1.74-0.91,2.37C401.49,246.72,400.69,247.04,399.69,247.04z"/>
		<path class="st0" d="M430.17,247.29c-3.25,0-6.12-0.77-8.61-2.31c-2.49-1.54-4.45-3.66-5.88-6.37c-1.43-2.71-2.14-5.82-2.14-9.33
			c0-3.55,0.77-6.68,2.31-9.39c1.54-2.71,3.65-4.83,6.34-6.37s5.79-2.31,9.3-2.31c3.47,0,6.54,0.77,9.23,2.31
			c2.69,1.54,4.8,3.66,6.34,6.37c1.54,2.71,2.31,5.84,2.31,9.39h-3.84c0,3.51-0.66,6.62-1.98,9.33c-1.32,2.71-3.13,4.83-5.43,6.37
			C435.81,246.53,433.16,247.29,430.17,247.29z M431.34,261.79c-3.08,0-5.96-0.61-8.64-1.82c-2.69-1.21-4.96-2.99-6.83-5.33
			c-0.56-0.74-0.77-1.5-0.62-2.28c0.15-0.78,0.57-1.41,1.27-1.88c0.78-0.52,1.59-0.69,2.44-0.52c0.84,0.17,1.53,0.61,2.05,1.3
			c1.17,1.47,2.64,2.62,4.42,3.44c1.78,0.82,3.79,1.24,6.05,1.24c2.08,0,4-0.5,5.75-1.5c1.75-1,3.15-2.47,4.19-4.42
			c1.04-1.95,1.56-4.33,1.56-7.15v-9.23l2.14-5.72l4.23,1.37v14.04c0,3.42-0.76,6.53-2.28,9.33c-1.52,2.79-3.63,5.02-6.34,6.66
			S434.9,261.79,431.34,261.79z M431.48,241.45c2.25,0,4.25-0.52,5.98-1.56c1.73-1.04,3.09-2.47,4.06-4.29s1.46-3.92,1.46-6.3
			s-0.49-4.5-1.46-6.34s-2.33-3.28-4.06-4.32c-1.73-1.04-3.73-1.56-5.98-1.56c-2.25,0-4.25,0.52-5.98,1.56
			c-1.73,1.04-3.1,2.48-4.09,4.32c-1,1.84-1.5,3.96-1.5,6.34s0.5,4.48,1.5,6.3c1,1.82,2.36,3.25,4.09,4.29
			C427.23,240.93,429.22,241.45,431.48,241.45z"/>
		<path class="st0" d="M463.19,205.7c-1.17,0-2.18-0.42-3.02-1.27c-0.85-0.84-1.27-1.85-1.27-3.02s0.42-2.18,1.27-3.02
			c0.84-0.84,1.85-1.27,3.02-1.27s2.18,0.42,3.02,1.27c0.84,0.85,1.27,1.85,1.27,3.02s-0.42,2.18-1.27,3.02
			C465.37,205.27,464.36,205.7,463.19,205.7z M463.19,247.04c-0.95,0-1.75-0.31-2.37-0.94c-0.63-0.63-0.94-1.42-0.94-2.37v-28.93
			c0-1,0.31-1.8,0.94-2.4c0.63-0.61,1.42-0.91,2.37-0.91c1,0,1.8,0.3,2.41,0.91c0.61,0.61,0.91,1.41,0.91,2.4v28.93
			c0,0.95-0.3,1.74-0.91,2.37C464.99,246.72,464.19,247.04,463.19,247.04z"/>
		<path class="st0" d="M477.36,218.37c-0.91,0-1.65-0.26-2.21-0.78c-0.56-0.52-0.84-1.17-0.84-1.95c0-0.87,0.28-1.56,0.84-2.08
			c0.56-0.52,1.3-0.78,2.21-0.78h15.02c0.91,0,1.65,0.26,2.21,0.78c0.56,0.52,0.84,1.21,0.84,2.08c0,0.78-0.28,1.43-0.84,1.95
			c-0.56,0.52-1.3,0.78-2.21,0.78H477.36z M491.79,247.04c-2.17,0-4.12-0.55-5.85-1.66c-1.73-1.1-3.1-2.61-4.09-4.52
			c-1-1.91-1.5-4.05-1.5-6.44v-31.01c0-0.95,0.3-1.73,0.91-2.34c0.61-0.61,1.39-0.91,2.34-0.91c0.95,0,1.73,0.3,2.34,0.91
			c0.61,0.61,0.91,1.39,0.91,2.34v31.01c0,1.73,0.48,3.19,1.43,4.36s2.12,1.75,3.51,1.75H494c0.78,0,1.44,0.3,1.98,0.91
			c0.54,0.61,0.81,1.39,0.81,2.34c0,0.95-0.36,1.73-1.07,2.34c-0.71,0.61-1.64,0.91-2.76,0.91H491.79z"/>
		<path class="st0" d="M519.74,247.29c-3.16,0-6-0.79-8.51-2.37c-2.51-1.58-4.5-3.73-5.95-6.44c-1.45-2.71-2.18-5.77-2.18-9.2
			c0-3.42,0.79-6.5,2.37-9.23s3.73-4.88,6.44-6.47c2.71-1.58,5.75-2.37,9.13-2.37c3.38,0,6.41,0.79,9.1,2.37
			c2.69,1.58,4.82,3.74,6.4,6.47c1.58,2.73,2.37,5.81,2.37,9.23h-2.54c0,3.42-0.73,6.49-2.18,9.2c-1.45,2.71-3.43,4.85-5.95,6.44
			C525.74,246.51,522.9,247.29,519.74,247.29z M521.04,241.45c2.21,0,4.18-0.53,5.91-1.59c1.73-1.06,3.1-2.51,4.1-4.36
			c1-1.84,1.5-3.91,1.5-6.21c0-2.34-0.5-4.43-1.5-6.27c-1-1.84-2.36-3.29-4.1-4.35c-1.73-1.06-3.7-1.59-5.91-1.59
			c-2.17,0-4.13,0.53-5.88,1.59c-1.75,1.06-3.14,2.51-4.16,4.35c-1.02,1.84-1.53,3.93-1.53,6.27c0,2.3,0.51,4.37,1.53,6.21
			c1.02,1.84,2.41,3.29,4.16,4.36C516.91,240.92,518.87,241.45,521.04,241.45z M535.6,247.1c-0.95,0-1.75-0.31-2.37-0.94
			c-0.63-0.63-0.94-1.42-0.94-2.37v-9.94l1.24-6.89l5.4,2.34v14.49c0,0.95-0.32,1.75-0.94,2.37
			C537.35,246.79,536.55,247.1,535.6,247.1z"/>
		<path class="st0" d="M557.25,247.04c-1.91,0-3.6-0.52-5.07-1.56c-1.47-1.04-2.62-2.46-3.45-4.26c-0.82-1.8-1.24-3.87-1.24-6.21
			v-35.49c0-0.95,0.3-1.73,0.91-2.34c0.61-0.61,1.39-0.91,2.34-0.91s1.73,0.3,2.34,0.91c0.61,0.61,0.91,1.39,0.91,2.34v35.49
			c0,1.6,0.3,2.92,0.91,3.96c0.61,1.04,1.39,1.56,2.34,1.56h1.62c0.87,0,1.57,0.3,2.11,0.91c0.54,0.61,0.81,1.39,0.81,2.34
			c0,0.95-0.41,1.73-1.24,2.34c-0.82,0.61-1.88,0.91-3.18,0.91H557.25z"/>
		<path class="st0" d="M604.11,247.69c-2.77,0-5.42-0.43-7.93-1.3c-2.51-0.87-4.7-2.08-6.56-3.64c-1.86-1.56-3.23-3.36-4.1-5.4
			c-0.43-0.91-0.42-1.75,0.03-2.54s1.22-1.28,2.31-1.5c0.78-0.17,1.55-0.05,2.31,0.36c0.76,0.41,1.33,1.03,1.72,1.85
			c0.52,1.08,1.38,2.08,2.57,2.99c1.19,0.91,2.63,1.65,4.32,2.21c1.69,0.56,3.47,0.85,5.33,0.85c2.08,0,4-0.33,5.75-0.98
			s3.17-1.59,4.26-2.83c1.08-1.24,1.62-2.76,1.62-4.58c0-2.3-0.9-4.35-2.7-6.17c-1.8-1.82-4.76-2.95-8.87-3.38
			c-5.37-0.52-9.6-2.1-12.67-4.75c-3.08-2.64-4.62-5.92-4.62-9.81c0-2.86,0.8-5.29,2.41-7.28c1.6-1.99,3.78-3.51,6.53-4.55
			c2.75-1.04,5.82-1.56,9.2-1.56c2.64,0,4.95,0.37,6.92,1.11c1.97,0.74,3.69,1.75,5.17,3.05c1.47,1.3,2.75,2.84,3.83,4.62
			c0.61,0.95,0.85,1.85,0.75,2.7c-0.11,0.84-0.53,1.51-1.27,1.98c-0.82,0.52-1.71,0.63-2.67,0.33c-0.95-0.3-1.67-0.87-2.14-1.69
			c-0.69-1.26-1.54-2.32-2.54-3.18c-1-0.87-2.17-1.55-3.51-2.05c-1.34-0.5-2.93-0.75-4.75-0.75c-3.21-0.04-5.89,0.55-8.06,1.79
			s-3.25,3.13-3.25,5.69c0,1.3,0.34,2.55,1.01,3.74c0.67,1.19,1.91,2.22,3.71,3.09c1.8,0.87,4.39,1.47,7.77,1.82
			c5.16,0.52,9.17,2.09,12.06,4.71c2.88,2.62,4.32,6.08,4.32,10.37c0,2.47-0.51,4.62-1.53,6.43c-1.02,1.82-2.38,3.35-4.09,4.58
			c-1.71,1.23-3.66,2.16-5.85,2.76C608.71,247.38,606.45,247.69,604.11,247.69z"/>
		<path class="st0" d="M648.18,247.29c-3.51,0-6.61-0.77-9.3-2.31c-2.69-1.54-4.8-3.66-6.34-6.37c-1.54-2.71-2.31-5.82-2.31-9.33
			c0-3.55,0.77-6.68,2.31-9.39c1.54-2.71,3.65-4.83,6.34-6.37s5.79-2.31,9.3-2.31c3.47,0,6.54,0.77,9.23,2.31
			c2.69,1.54,4.8,3.66,6.34,6.37c1.54,2.71,2.31,5.84,2.31,9.39c0,3.51-0.76,6.62-2.28,9.33c-1.52,2.71-3.62,4.83-6.3,6.37
			C654.79,246.53,651.69,247.29,648.18,247.29z M648.18,241.45c2.25,0,4.25-0.52,5.98-1.56c1.73-1.04,3.09-2.47,4.06-4.29
			s1.46-3.92,1.46-6.3s-0.49-4.5-1.46-6.34s-2.33-3.28-4.06-4.32c-1.73-1.04-3.73-1.56-5.98-1.56c-2.25,0-4.25,0.52-5.98,1.56
			c-1.73,1.04-3.1,2.48-4.09,4.32c-1,1.84-1.5,3.96-1.5,6.34s0.5,4.48,1.5,6.3c1,1.82,2.36,3.25,4.09,4.29
			C643.93,240.93,645.93,241.45,648.18,241.45z"/>
		<path class="st0" d="M684.38,247.04c-1.91,0-3.6-0.52-5.07-1.56c-1.47-1.04-2.62-2.46-3.45-4.26c-0.82-1.8-1.24-3.87-1.24-6.21
			v-35.49c0-0.95,0.3-1.73,0.91-2.34c0.61-0.61,1.39-0.91,2.34-0.91s1.73,0.3,2.34,0.91c0.61,0.61,0.91,1.39,0.91,2.34v35.49
			c0,1.6,0.3,2.92,0.91,3.96c0.61,1.04,1.39,1.56,2.34,1.56h1.62c0.87,0,1.57,0.3,2.11,0.91c0.54,0.61,0.81,1.39,0.81,2.34
			c0,0.95-0.41,1.73-1.24,2.34c-0.82,0.61-1.88,0.91-3.18,0.91H684.38z"/>
		<path class="st0" d="M710.38,247.36c-2.99,0-5.67-0.64-8.03-1.92c-2.36-1.28-4.23-3.15-5.59-5.62c-1.37-2.47-2.05-5.5-2.05-9.1
			v-15.99c0-0.95,0.31-1.74,0.94-2.37c0.63-0.63,1.42-0.94,2.37-0.94c0.95,0,1.74,0.31,2.37,0.94c0.63,0.63,0.94,1.42,0.94,2.37
			v15.99c0,2.43,0.46,4.43,1.37,6.01c0.91,1.58,2.14,2.75,3.71,3.51c1.56,0.76,3.31,1.14,5.26,1.14c1.86,0,3.52-0.37,4.97-1.11
			c1.45-0.74,2.61-1.73,3.48-2.99c0.87-1.26,1.3-2.66,1.3-4.22h4.09c0,2.69-0.66,5.11-1.98,7.28c-1.32,2.17-3.12,3.88-5.39,5.13
			C715.88,246.73,713.29,247.36,710.38,247.36z M724.75,247.04c-0.95,0-1.75-0.31-2.37-0.94c-0.63-0.63-0.94-1.42-0.94-2.37v-28.99
			c0-1,0.31-1.8,0.94-2.4s1.42-0.91,2.37-0.91c1,0,1.8,0.3,2.4,0.91s0.91,1.41,0.91,2.4v28.99c0,0.95-0.3,1.74-0.91,2.37
			C726.55,246.72,725.74,247.04,724.75,247.04z"/>
		<path class="st0" d="M738.27,218.37c-0.91,0-1.65-0.26-2.21-0.78c-0.56-0.52-0.84-1.17-0.84-1.95c0-0.87,0.28-1.56,0.84-2.08
			c0.56-0.52,1.3-0.78,2.21-0.78h15.02c0.91,0,1.65,0.26,2.21,0.78c0.56,0.52,0.84,1.21,0.84,2.08c0,0.78-0.28,1.43-0.84,1.95
			c-0.56,0.52-1.3,0.78-2.21,0.78H738.27z M752.7,247.04c-2.17,0-4.12-0.55-5.85-1.66c-1.73-1.1-3.1-2.61-4.09-4.52
			c-1-1.91-1.5-4.05-1.5-6.44v-31.01c0-0.95,0.3-1.73,0.91-2.34c0.61-0.61,1.39-0.91,2.34-0.91c0.95,0,1.73,0.3,2.34,0.91
			c0.61,0.61,0.91,1.39,0.91,2.34v31.01c0,1.73,0.48,3.19,1.43,4.36s2.12,1.75,3.51,1.75h2.21c0.78,0,1.44,0.3,1.98,0.91
			c0.54,0.61,0.81,1.39,0.81,2.34c0,0.95-0.36,1.73-1.07,2.34c-0.71,0.61-1.64,0.91-2.76,0.91H752.7z"/>
		<path class="st0" d="M769.79,205.7c-1.17,0-2.18-0.42-3.02-1.27c-0.84-0.84-1.27-1.85-1.27-3.02s0.42-2.18,1.27-3.02
			c0.85-0.84,1.85-1.27,3.02-1.27s2.18,0.42,3.02,1.27c0.85,0.85,1.27,1.85,1.27,3.02s-0.42,2.18-1.27,3.02
			C771.97,205.27,770.96,205.7,769.79,205.7z M769.79,247.04c-0.95,0-1.74-0.31-2.37-0.94c-0.63-0.63-0.94-1.42-0.94-2.37v-28.93
			c0-1,0.31-1.8,0.94-2.4c0.63-0.61,1.42-0.91,2.37-0.91c1,0,1.8,0.3,2.41,0.91c0.61,0.61,0.91,1.41,0.91,2.4v28.93
			c0,0.95-0.3,1.74-0.91,2.37C771.59,246.72,770.79,247.04,769.79,247.04z"/>
		<path class="st0" d="M801.58,247.29c-3.51,0-6.61-0.77-9.29-2.31c-2.69-1.54-4.8-3.66-6.34-6.37s-2.31-5.82-2.31-9.33
			c0-3.55,0.77-6.68,2.31-9.39c1.54-2.71,3.65-4.83,6.34-6.37c2.69-1.54,5.79-2.31,9.29-2.31c3.47,0,6.54,0.77,9.23,2.31
			c2.69,1.54,4.8,3.66,6.34,6.37c1.54,2.71,2.31,5.84,2.31,9.39c0,3.51-0.76,6.62-2.28,9.33s-3.62,4.83-6.3,6.37
			C808.18,246.53,805.09,247.29,801.58,247.29z M801.58,241.45c2.25,0,4.25-0.52,5.98-1.56c1.73-1.04,3.09-2.47,4.06-4.29
			c0.97-1.82,1.46-3.92,1.46-6.3s-0.49-4.5-1.46-6.34c-0.98-1.84-2.33-3.28-4.06-4.32c-1.73-1.04-3.73-1.56-5.98-1.56
			c-2.25,0-4.25,0.52-5.98,1.56c-1.73,1.04-3.1,2.48-4.1,4.32c-1,1.84-1.5,3.96-1.5,6.34s0.5,4.48,1.5,6.3
			c1,1.82,2.36,3.25,4.1,4.29C797.33,240.93,799.32,241.45,801.58,241.45z"/>
		<path class="st0" d="M832.64,247.1c-0.95,0-1.75-0.31-2.37-0.94c-0.63-0.63-0.94-1.42-0.94-2.37v-28.99c0-1,0.31-1.8,0.94-2.4
			c0.63-0.61,1.42-0.91,2.37-0.91c1,0,1.8,0.3,2.41,0.91c0.61,0.61,0.91,1.41,0.91,2.4v28.99c0,0.95-0.3,1.75-0.91,2.37
			C834.44,246.79,833.64,247.1,832.64,247.1z M859.36,247.1c-0.95,0-1.74-0.31-2.37-0.94c-0.63-0.63-0.94-1.42-0.94-2.37v-15.99
			c0-2.47-0.46-4.48-1.37-6.04c-0.91-1.56-2.13-2.72-3.67-3.48s-3.3-1.14-5.3-1.14c-1.82,0-3.47,0.37-4.94,1.1
			c-1.47,0.74-2.64,1.72-3.51,2.96c-0.87,1.24-1.3,2.66-1.3,4.26h-4.1c0-2.73,0.66-5.17,1.98-7.31c1.32-2.14,3.13-3.84,5.43-5.1
			s4.88-1.88,7.74-1.88c2.99,0,5.67,0.64,8.03,1.92c2.36,1.28,4.23,3.15,5.59,5.62c1.37,2.47,2.05,5.5,2.05,9.1v15.99
			c0,0.95-0.31,1.75-0.94,2.37C861.1,246.79,860.31,247.1,859.36,247.1z"/>
		<path class="st0" d="M886.59,247.29c-3.03,0-5.84-0.46-8.42-1.4c-2.58-0.93-4.58-2.11-6.01-3.54c-0.65-0.69-0.92-1.48-0.81-2.37
			c0.11-0.89,0.53-1.61,1.27-2.18c0.87-0.69,1.72-0.99,2.57-0.88c0.84,0.11,1.57,0.49,2.18,1.14c0.74,0.82,1.92,1.59,3.54,2.31
			s3.43,1.07,5.43,1.07c2.51,0,4.43-0.41,5.75-1.23c1.32-0.82,2-1.88,2.05-3.19c0.04-1.3-0.58-2.43-1.85-3.38
			c-1.28-0.95-3.61-1.73-6.99-2.34c-4.38-0.87-7.55-2.17-9.52-3.9c-1.97-1.73-2.96-3.86-2.96-6.37c0-2.21,0.65-4.04,1.95-5.49
			c1.3-1.45,2.97-2.54,5-3.25c2.04-0.71,4.16-1.07,6.37-1.07c2.86,0,5.4,0.46,7.61,1.37s3.96,2.17,5.26,3.77
			c0.61,0.69,0.89,1.42,0.84,2.18c-0.04,0.76-0.41,1.4-1.1,1.92c-0.69,0.48-1.52,0.63-2.47,0.46c-0.95-0.17-1.76-0.56-2.41-1.17
			c-1.08-1.04-2.25-1.76-3.51-2.15c-1.26-0.39-2.71-0.58-4.36-0.58c-1.91,0-3.52,0.32-4.84,0.97c-1.32,0.65-1.98,1.6-1.98,2.86
			c0,0.78,0.21,1.49,0.62,2.11c0.41,0.63,1.22,1.19,2.44,1.69c1.21,0.5,2.99,0.99,5.33,1.46c3.25,0.65,5.82,1.47,7.7,2.47
			c1.88,1,3.24,2.16,4.06,3.48c0.82,1.32,1.23,2.85,1.23,4.58c0,1.99-0.53,3.79-1.59,5.4c-1.06,1.6-2.62,2.88-4.68,3.83
			C892.24,246.82,889.67,247.29,886.59,247.29z"/>
	</g>
</g>
</svg>
